<svg xmlns="http://www.w3.org/2000/svg" viewBox="0 0 512 512" width="100%" height="100%">
<rect width="512" height="512" rx="100" fill="#0d0d0d"/>
<rect x="150" y="150" width="100" height="80" fill="#4287f5"/>
<rect x="150" y="110" width="25" height="40" fill="#4287f5"/>
<rect x="187.5" y="110" width="25" height="40" fill="#4287f5"/>
<rect x="225" y="110" width="25" height="40" fill="#4287f5"/>
<polygon points="140,400 260,400 240,230 160,230" fill="#f49b36"/>
<rect x="140" y="230" width="120" height="20" fill="#d1621f"/>
<rect x="180" y="320" width="40" height="80" fill="#d1621f"/>
<line x1="280" y1="200" x2="480" y2="200" stroke="#37a38b" stroke-width="15" stroke-linecap="round"/>
<line x1="300" y1="300" x2="480" y2="300" stroke="#37a38b" stroke-width="15" stroke-linecap="round"/>
<line x1="260" y1="400" x2="480" y2="400" stroke="#37a38b" stroke-width="15" stroke-linecap="round"/>
<polygon points="360,190 340,150 380,150" fill="#f44336"/>
<polygon points="420,190 400,150 440,150" fill="#f44336"/>
<rect x="360" y="250" width="30" height="30" fill="#f44336"/>
<rect x="420" y="250" width="30" height="30" fill="#f49b36"/>
<polygon points="360,390 340,350 380,350" fill="#f44336"/>
<polygon points="420,390 400,350 440,350" fill="#f49b36"/>
<circle cx="280" cy="250" r="12" fill="#fbc02d"/>
<circle cx="320" cy="220" r="8" fill="#fbc02d"/>
<circle cx="340" cy="280" r="10" fill="#fbc02d"/>
<circle cx="290" cy="350" r="8" fill="#fbc02d"/>
</svg>
